<?xml version="1.0" encoding="utf-8"?>
<!DOCTYPE svg PUBLIC "-//W3C//DTD SVG 1.1//EN" "http://www.w3.org/Graphics/SVG/1.1/DTD/svg11.dtd" [
        <!ENTITY ns_extend "http://ns.adobe.com/Extensibility/1.0/">
        <!ENTITY ns_ai "http://ns.adobe.com/AdobeIllustrator/10.0/">
        <!ENTITY ns_graphs "http://ns.adobe.com/Graphs/1.0/">
        <!ENTITY ns_vars "http://ns.adobe.com/Variables/1.0/">
        <!ENTITY ns_imrep "http://ns.adobe.com/ImageReplacement/1.0/">
        <!ENTITY ns_sfw "http://ns.adobe.com/SaveForWeb/1.0/">
        <!ENTITY ns_custom "http://ns.adobe.com/GenericCustomNamespace/1.0/">
        <!ENTITY ns_adobe_xpath "http://ns.adobe.com/XPath/1.0/">
        ]>
<svg version="1.1" id="Layer_1"
	 xmlns="http://www.w3.org/2000/svg"  x="0px" y="0px" width="299.321px"
	 height="318.737px" viewBox="0 0 299.321 318.737" enable-background="new 0 0 299.321 318.737" xml:space="preserve">
	<g>
		<path fill="#1F7542" d="M145.392,309.725l18.455-37.458l19.311,5.773l-18.455,37.458l0.065-0.129
			c-0.818,1.977-2.767,3.367-5.039,3.367H149.51c-3.012,0-5.451-2.44-5.451-5.451C144.059,311.918,145.392,309.725,145.392,309.725
			z"/>
		<path fill="#1F7542" d="M131.295,318.737c3.01,0,5.451-2.44,5.451-5.451s-2.441-5.451-5.451-5.451h-10.22
			c-3.011,0-5.451,2.44-5.451,5.451s2.44,5.451,5.451,5.451H131.295z"/>
		<polygon fill="#1F7542" points="136.746,313.286 136.746,240.399 90.02,240.399 123.246,307.834 			"/>
		<path fill="#189C49" d="M201.008,225.665L97.961,187.483c-16.186-4.505-27.968-19.312-27.968-36.935V23.042
			C69.993,10.317,59.677,0,46.951,0h-16.9c-8.745,0-15.835,7.088-15.835,15.834l0,0H9.959c-5.5,0-9.959,4.459-9.959,9.959
			c0,5.501,4.459,9.96,9.959,9.96h10.818c8.745,0,15.834,7.089,15.834,15.834V201.59c0,32.587,26.418,59.003,59.004,59.003h94.435
			l31.077,30.272l0,0c10.384,9.104,23.989,14.624,38.885,14.624c15.1,0,28.874-5.671,39.31-15l-0.002-0.001
			c-6.31,2.303-13.123,3.559-20.23,3.559c-27.522,0-50.645-18.844-57.165-44.334l0.471,1.727
			C219.582,239.946,211.564,230.483,201.008,225.665"/>
		<circle fill="#0B1B26" cx="38.5" cy="12.834" r="5.451"/>
		<path fill="#37D74A" d="M102.407,318.737c3.011,0,5.451-2.44,5.451-5.451s-2.44-5.451-5.451-5.451h-10.22
			c-3.011,0-5.451,2.44-5.451,5.451s2.44,5.451,5.451,5.451H102.407z"/>
		<path fill="#37D74A" d="M107.858,313.286V191.151l-7.943-2.943L81.46,225.665l0.001-0.001
			c-4.504,8.333-7.061,17.873-7.061,28.011c0,10.235,2.606,19.861,7.191,28.252l12.766,25.908L107.858,313.286z"/>
		<path fill="#37D74A" d="M197.859,224.498v88.788c0,3.011-2.441,5.451-5.451,5.451h-10.221c-3.01,0-5.451-2.44-5.451-5.451
			v-16.443c0-6.388-3.781-11.893-9.229-14.395l0.019,0.011c-9.153-3.051-15.752-11.688-15.752-21.865
			c0-3.96,0.999-7.687,2.759-10.941l17.168-34.847L197.859,224.498z"/>
	</g>
</svg>
