<?xml version="1.0" encoding="utf-8"?>
<!DOCTYPE svg PUBLIC "-//W3C//DTD SVG 1.1//EN" "http://www.w3.org/Graphics/SVG/1.1/DTD/svg11.dtd" [
        <!ENTITY ns_extend "http://ns.adobe.com/Extensibility/1.0/">
        <!ENTITY ns_ai "http://ns.adobe.com/AdobeIllustrator/10.0/">
        <!ENTITY ns_graphs "http://ns.adobe.com/Graphs/1.0/">
        <!ENTITY ns_vars "http://ns.adobe.com/Variables/1.0/">
        <!ENTITY ns_imrep "http://ns.adobe.com/ImageReplacement/1.0/">
        <!ENTITY ns_sfw "http://ns.adobe.com/SaveForWeb/1.0/">
        <!ENTITY ns_custom "http://ns.adobe.com/GenericCustomNamespace/1.0/">
        <!ENTITY ns_adobe_xpath "http://ns.adobe.com/XPath/1.0/">
        ]>
<svg version="1.1" id="Layer_1"
	 xmlns="http://www.w3.org/2000/svg"  x="0px" y="0px" width="251.453px"
	 height="186.144px" viewBox="0 0 251.453 186.144" enable-background="new 0 0 251.453 186.144" xml:space="preserve">
	<g>
		<rect fill="#189C49" width="251.453" height="186.144"/>
		<g>
			<path fill="#BAC8CF" d="M125.727,75.029c9.948,0,18.042,8.094,18.042,18.043c0,9.948-8.094,18.041-18.042,18.041
				s-18.042-8.093-18.042-18.041C107.685,83.124,115.778,75.029,125.727,75.029 M125.727,70.029
				c-12.726,0-23.042,10.316-23.042,23.043c0,12.725,10.316,23.041,23.042,23.041s23.042-10.316,23.042-23.041
				C148.769,80.346,138.452,70.029,125.727,70.029L125.727,70.029z"/>
		</g>
		<g>
			<path fill="#BAC8CF" d="M60.121,115.338l-2.454-4.356c6.462-3.641,10.476-10.503,10.476-17.91
				c0-7.407-4.013-14.271-10.474-17.911l2.455-4.356c8.03,4.525,13.019,13.058,13.019,22.267
				C73.143,102.281,68.153,110.812,60.121,115.338z"/>
		</g>
		<g>
			<path fill="#BAC8CF" d="M191.329,115.338c-8.03-4.525-13.019-13.058-13.019-22.267s4.99-17.741,13.023-22.266l2.454,4.356
				c-6.462,3.641-10.477,10.503-10.477,17.91c0,7.407,4.013,14.27,10.474,17.911L191.329,115.338z"/>
		</g>
		<g>
			<path fill="#BAC8CF" d="M226.893,20.572v144.999H24.561V20.572H226.893 M231.893,15.572H19.561v154.999h212.332V15.572
				L231.893,15.572z"/>
		</g>
		<g>
			<polygon fill="#BAC8CF" points="231.893,142.071 190.061,142.071 190.061,44.071 231.893,44.071 231.893,49.071 195.061,49.071
				195.061,137.071 231.893,137.071 				"/>
		</g>
		<g>
			<polygon fill="#BAC8CF" points="61.393,142.071 19.561,142.071 19.561,137.071 56.393,137.071 56.393,49.071 19.561,49.071
				19.561,44.071 61.393,44.071 				"/>
		</g>
		<g>
			<polygon fill="#BAC8CF" points="37.393,118.613 19.561,118.613 19.561,113.613 32.393,113.613 32.393,72.529 19.561,72.529
				19.561,67.529 37.393,67.529 				"/>
		</g>
		<g>
			<polygon fill="#BAC8CF" points="231.893,118.613 214.061,118.613 214.061,67.529 231.893,67.529 231.893,72.529 219.061,72.529
				219.061,113.613 231.893,113.613 				"/>
		</g>
	</g>
</svg>
