<?xml version="1.0" encoding="utf-8"?>
<!DOCTYPE svg PUBLIC "-//W3C//DTD SVG 1.1//EN" "http://www.w3.org/Graphics/SVG/1.1/DTD/svg11.dtd" [
        <!ENTITY ns_extend "http://ns.adobe.com/Extensibility/1.0/">
        <!ENTITY ns_ai "http://ns.adobe.com/AdobeIllustrator/10.0/">
        <!ENTITY ns_graphs "http://ns.adobe.com/Graphs/1.0/">
        <!ENTITY ns_vars "http://ns.adobe.com/Variables/1.0/">
        <!ENTITY ns_imrep "http://ns.adobe.com/ImageReplacement/1.0/">
        <!ENTITY ns_sfw "http://ns.adobe.com/SaveForWeb/1.0/">
        <!ENTITY ns_custom "http://ns.adobe.com/GenericCustomNamespace/1.0/">
        <!ENTITY ns_adobe_xpath "http://ns.adobe.com/XPath/1.0/">
        ]>
<svg version="1.1" id="Layer_1"
	 xmlns="http://www.w3.org/2000/svg"  x="0px" y="0px" width="253.236px"
	 height="149.333px" viewBox="0 0 253.236 149.333" enable-background="new 0 0 253.236 149.333" xml:space="preserve">
	<g>
		<rect x="132.768" y="111.999" fill="#805A5A" width="83.947" height="7"/>
		<rect x="7.667" y="118.999" fill="#C69580" width="127.333" height="30.334"/>
		<path fill="#805A5A" d="M90.477,142.503v-11.889c0-3.012-2.44-5.451-5.451-5.451s-5.451,2.439-5.451,5.451v11.889H90.477z"/>
		<path fill="#805A5A" d="M111.543,142.503v-11.889c0-3.012-2.441-5.451-5.451-5.451c-3.012,0-5.451,2.439-5.451,5.451v11.889
			H111.543z"/>
		<path fill="#805A5A" d="M132.608,142.503v-11.889c0-3.012-2.44-5.451-5.451-5.451s-5.451,2.439-5.451,5.451v11.889H132.608z"/>
		<path fill="#805A5A" d="M69.41,142.503v-11.889c0-3.012-2.439-5.451-5.451-5.451c-3.01,0-5.451,2.439-5.451,5.451v11.889H69.41z"
			/>
		<path fill="#805A5A" d="M48.344,142.503v-11.889c0-3.012-2.439-5.451-5.451-5.451c-3.01,0-5.451,2.439-5.451,5.451v11.889H48.344
			z"/>
		<path fill="#805A5A" d="M27.279,142.503v-11.889c0-3.012-2.441-5.451-5.451-5.451c-3.012,0-5.451,2.439-5.451,5.451v11.889
			H27.279z"/>
		<rect x="7.667" y="81.666" fill="#C69580" width="106.666" height="30.333"/>
		<path fill="#805A5A" d="M90.477,105.17V93.28c0-3.01-2.44-5.451-5.451-5.451s-5.451,2.441-5.451,5.451v11.89H90.477z"/>
		<path fill="#805A5A" d="M111.543,105.17V93.28c0-3.01-2.441-5.451-5.451-5.451c-3.012,0-5.451,2.441-5.451,5.451v11.89H111.543z"
			/>
		<path fill="#805A5A" d="M69.41,105.17V93.28c0-3.01-2.439-5.451-5.451-5.451c-3.01,0-5.451,2.441-5.451,5.451v11.89H69.41z"/>
		<path fill="#805A5A" d="M48.344,105.17V93.28c0-3.01-2.439-5.451-5.451-5.451c-3.01,0-5.451,2.441-5.451,5.451v11.89H48.344z"/>
		<path fill="#805A5A" d="M27.279,105.17V93.28c0-3.01-2.441-5.451-5.451-5.451c-3.012,0-5.451,2.441-5.451,5.451v11.89H27.279z"/>
		<rect y="111.999" fill="#A47768" width="145" height="7"/>
		<path fill="#C69580" d="M7.667,44.333v30.333h87.149V44.333H7.667z M27.566,67.736h-11V55.947c0-3.011,2.488-5.451,5.5-5.451
			c3.01,0,5.5,2.44,5.5,5.451V67.736z M48.566,67.736h-11V55.947c0-3.011,2.49-5.451,5.5-5.451c3.012,0,5.5,2.44,5.5,5.451V67.736z
			 M69.566,67.736h-11V55.947c0-3.011,2.49-5.451,5.5-5.451c3.012,0,5.5,2.44,5.5,5.451V67.736z M90.566,67.736h-11V55.947
			c0-3.011,2.489-5.451,5.5-5.451s5.5,2.44,5.5,5.451V67.736z"/>
		<rect y="74.666" fill="#A47768" width="124.333" height="6.999"/>
		<rect x="169.289" y="74.666" fill="#A47768" width="83.947" height="6.999"/>
		<rect x="169.289" y="111.999" fill="#A47768" width="83.947" height="7"/>
		<rect y="37.333" fill="#A47768" width="106.092" height="7"/>
		<polygon fill="#C69580" points="110.839,74.667 95.893,44.333 90.441,44.333 90.441,74.667 			"/>
		<polygon fill="#C69580" points="92.897,37.333 77.951,6.999 72.5,6.999 72.5,37.333 			"/>
		<polygon fill="#C69580" points="131.905,112.001 116.959,81.665 111.508,81.665 111.508,112.001 			"/>
		<polygon fill="#A47768" points="195.104,112.001 180.157,81.665 174.706,81.665 174.706,112.001 			"/>
		<polygon fill="#A47768" points="195.104,149.333 180.157,118.999 174.706,118.999 174.706,149.333 			"/>
		<polygon fill="#C69580" points="152.972,149.333 138.025,118.998 132.574,118.998 132.574,149.333 			"/>
		<path fill="#C69580" d="M7.667,6.999v30.334h68.999V6.999H7.667z M25.327,26.241h-6.999V13.999h6.999V26.241z M67.459,26.241
			H60.46V13.999h6.999V26.241z"/>
		<rect fill="#C69580" width="85.025" height="6.999"/>
		<polygon fill="#A47768" points="81.4,13.999 7.667,13.999 7.667,6.999 78,6.999 			"/>
		<path fill="#A47768" d="M169.289,87.829c3.012,0,5.451,2.441,5.451,5.451V81.666h-57.781l4.968,10.084
			c0.662-2.265,2.75-3.921,5.229-3.921c3.011,0,5.451,2.441,5.451,5.451v11.89h-4.069l3.365,6.829h42.836v-6.829h-10.902V93.28
			C163.838,90.271,166.279,87.829,169.289,87.829z M153.675,105.17h-10.902V93.28c0-3.01,2.44-5.451,5.451-5.451
			s5.451,2.441,5.451,5.451V105.17z"/>
		<path fill="#A47768" d="M169.289,125.163c3.012,0,5.451,2.439,5.451,5.451v-11.615h-36.714l4.968,10.084
			c0.662-2.265,2.751-3.92,5.229-3.92c3.011,0,5.451,2.439,5.451,5.451v11.889h-4.068l-0.022-0.044l3.387,6.875h21.769v-6.83
			h-10.902v-11.889C163.838,127.603,166.279,125.163,169.289,125.163z"/>
		<path fill="#805A5A" d="M180.158,81.666l4.968,10.084c0.662-2.265,2.75-3.921,5.229-3.921c3.011,0,5.451,2.441,5.451,5.451v11.89
			h-4.069l3.365,6.829h49.73V81.666H180.158z M216.873,105.17h-10.902V93.28c0-3.01,2.44-5.451,5.451-5.451
			s5.451,2.441,5.451,5.451V105.17z M237.938,105.17h-10.902V93.28c0-3.01,2.44-5.451,5.451-5.451s5.451,2.441,5.451,5.451V105.17z
			"/>
		<path fill="#805A5A" d="M180.157,118.999l4.969,10.084c0.662-2.265,2.75-3.92,5.229-3.92c3.011,0,5.451,2.439,5.451,5.451v11.889
			h-4.068l-3.256-6.608l6.621,13.438h49.729v-30.334H180.157z M216.873,142.503h-10.902v-11.889c0-3.012,2.44-5.451,5.451-5.451
			s5.451,2.439,5.451,5.451V142.503z M237.938,142.503h-10.902v-11.889c0-3.012,2.44-5.451,5.451-5.451s5.451,2.439,5.451,5.451
			V142.503z"/>
	</g>
</svg>
