<?xml version="1.0" encoding="utf-8"?>
<!DOCTYPE svg PUBLIC "-//W3C//DTD SVG 1.1//EN" "http://www.w3.org/Graphics/SVG/1.1/DTD/svg11.dtd" [
        <!ENTITY ns_extend "http://ns.adobe.com/Extensibility/1.0/">
        <!ENTITY ns_ai "http://ns.adobe.com/AdobeIllustrator/10.0/">
        <!ENTITY ns_graphs "http://ns.adobe.com/Graphs/1.0/">
        <!ENTITY ns_vars "http://ns.adobe.com/Variables/1.0/">
        <!ENTITY ns_imrep "http://ns.adobe.com/ImageReplacement/1.0/">
        <!ENTITY ns_sfw "http://ns.adobe.com/SaveForWeb/1.0/">
        <!ENTITY ns_custom "http://ns.adobe.com/GenericCustomNamespace/1.0/">
        <!ENTITY ns_adobe_xpath "http://ns.adobe.com/XPath/1.0/">
        ]>
<svg version="1.1" id="Layer_1"
	 xmlns="http://www.w3.org/2000/svg" xmlns:xlink="http://www.w3.org/1999/xlink" x="0px" y="0px" width="300.99px"
	 height="188.256px" viewBox="0 0 300.99 188.256" enable-background="new 0 0 300.99 188.256" xml:space="preserve">
	<g>
		<path fill="#805A5A" d="M19.057,129.252v48.102H5.451c-3.01,0-5.451,2.44-5.451,5.451s2.441,5.451,5.451,5.451h37.465
			c8.744,0,15.834-7.09,15.834-15.835L19.057,129.252"/>
		<g>
			<defs>
				<path id="SVGID_1_" d="M19.096,129.252V38.375C19.096,17.181,36.277,0,57.471,0c21.194,0,38.375,17.181,38.375,38.374v17.47
					c0,21.194,17.182,38.375,38.375,38.375h68.33c32.587,0,59.003,26.416,59.003,59.003v24.132h33.985
					c3.01,0,5.451,2.44,5.451,5.451s-2.441,5.451-5.451,5.451h-61.025H78.1C45.513,188.256,19.096,161.84,19.096,129.252"/>
			</defs>
			<clipPath id="SVGID_2_">
				<use xlink:href="#SVGID_1_"  overflow="visible"/>
			</clipPath>
			<g clip-path="url(#SVGID_2_)">
				<path fill="#A47768" d="M19.096,129.252V38.375C19.096,17.181,36.277,0,57.471,0c21.194,0,38.375,17.181,38.375,38.374v17.47
					c0,21.194,17.182,38.375,38.375,38.375h68.33c32.587,0,59.003,26.416,59.003,59.003v24.132h33.985
					c3.01,0,5.451,2.44,5.451,5.451s-2.441,5.451-5.451,5.451h-61.025H78.1C45.513,188.256,19.096,161.84,19.096,129.252"/>
				<path fill="#C69580" d="M149.49,87.15v90.204h28.215c3.011,0,5.451,2.44,5.451,5.451s-2.44,5.451-5.451,5.451h-10.219
					l-54.192-0.001c-7.24-9.798-11.521-21.916-11.521-35.033c0-10.337,2.658-20.052,7.328-28.501l0.052-0.113l18.455-37.458H149.49
					z"/>
				<g>
					<path fill="#C69580" d="M234.514,188.256h61.025c3.01,0,5.451-2.44,5.451-5.451s-2.441-5.451-5.451-5.451h-33.985V92.456
						h-41.378l-18.455,37.457c-3.484,5.779-5.582,12.729-5.582,19.969C196.139,171.076,213.32,188.256,234.514,188.256z"/>
				</g>
			</g>
		</g>
		<path fill="none" stroke="#000000" stroke-miterlimit="10" d="M256.055,94.219"/>
		<circle fill="#0B1B26" cx="38.695" cy="20.92" r="5.451"/>
		<g>
			<path fill="#BAC8CF" d="M50.845,133.031c-6.021,0-10.901-4.88-10.901-10.901V47.109h10.901V133.031z"/>
			<path fill="#BAC8CF" d="M64.057,133.031c6.021,0,10.902-4.88,10.902-10.901V47.109H64.057V133.031z"/>
			<path fill="#C69580" d="M71.738,51.933c5.5,0,9.959-4.459,9.959-9.961c0-5.5-4.459-9.958-9.959-9.958H43.204
				c-5.5,0-9.96,4.458-9.96,9.958c0,5.502,4.46,9.961,9.96,9.961H71.738z"/>
		</g>
		<circle fill="#0B1B26" cx="76.246" cy="20.92" r="5.451"/>
		<path fill="none" stroke="#000000" stroke-miterlimit="10" d="M19.096,129.252"/>
	</g>
</svg>
