<?xml version="1.0" encoding="utf-8"?>
<!DOCTYPE svg PUBLIC "-//W3C//DTD SVG 1.1//EN" "http://www.w3.org/Graphics/SVG/1.1/DTD/svg11.dtd" [
        <!ENTITY ns_extend "http://ns.adobe.com/Extensibility/1.0/">
        <!ENTITY ns_ai "http://ns.adobe.com/AdobeIllustrator/10.0/">
        <!ENTITY ns_graphs "http://ns.adobe.com/Graphs/1.0/">
        <!ENTITY ns_vars "http://ns.adobe.com/Variables/1.0/">
        <!ENTITY ns_imrep "http://ns.adobe.com/ImageReplacement/1.0/">
        <!ENTITY ns_sfw "http://ns.adobe.com/SaveForWeb/1.0/">
        <!ENTITY ns_custom "http://ns.adobe.com/GenericCustomNamespace/1.0/">
        <!ENTITY ns_adobe_xpath "http://ns.adobe.com/XPath/1.0/">
        ]>
<svg version="1.1" id="Layer_1"
	 xmlns="http://www.w3.org/2000/svg"  x="0px" y="0px" width="207.002px"
	 height="250.325px" viewBox="0 0 207.002 250.325" enable-background="new 0 0 207.002 250.325" xml:space="preserve">
	<g>
		<circle fill="#805A5A" cx="89.395" cy="207.364" r="23.042"/>
		<path fill="#805A5A" d="M79.437,240.364v-20.064h19.918v20.064c0,5.502-4.459,9.961-9.959,9.961S79.437,245.866,79.437,240.364z"
			/>
		<path fill="#805A5A" d="M79.964,154.585v35.546h18.861v-15.771c0-5.5,4.46-9.959,9.96-9.959h59.842
			c21.194,0,38.375-17.182,38.375-38.375c0-21.195-17.181-38.374-38.375-38.374H57.99c-3.011,0-5.451-2.441-5.451-5.451
			c0-3.012,2.44-5.451,5.451-5.451h84.329c21.194,0,38.375-17.182,38.375-38.375C180.694,17.18,163.514,0,142.319,0
			c-18.065,0-33.215,12.482-37.293,29.294H85.415c-3.01,0-5.451,2.44-5.451,5.451s2.441,5.451,5.451,5.451h26.291
			c4.919,0,9.006-3.565,9.814-8.255l-0.098,0.43c1.359-7.364,7.814-12.941,15.57-12.941c8.744,0,15.834,7.089,15.834,15.834
			s-7.09,15.835-15.834,15.835H38.375C17.181,51.099,0,68.28,0,89.474c0,21.193,17.181,38.375,38.375,38.375h114.847
			c3.01,0,5.451,2.439,5.451,5.451c0,3.01-2.441,5.451-5.451,5.451H95.799C87.054,138.751,79.964,145.839,79.964,154.585"/>
		<circle fill="#BAC8CF" cx="78.603" cy="223.717" r="5.451"/>
		<circle fill="#BAC8CF" cx="99.354" cy="223.717" r="5.451"/>
	</g>
</svg>
