<?xml version="1.0" encoding="utf-8"?>
<!DOCTYPE svg PUBLIC "-//W3C//DTD SVG 1.1//EN" "http://www.w3.org/Graphics/SVG/1.1/DTD/svg11.dtd" [
        <!ENTITY ns_extend "http://ns.adobe.com/Extensibility/1.0/">
        <!ENTITY ns_ai "http://ns.adobe.com/AdobeIllustrator/10.0/">
        <!ENTITY ns_graphs "http://ns.adobe.com/Graphs/1.0/">
        <!ENTITY ns_vars "http://ns.adobe.com/Variables/1.0/">
        <!ENTITY ns_imrep "http://ns.adobe.com/ImageReplacement/1.0/">
        <!ENTITY ns_sfw "http://ns.adobe.com/SaveForWeb/1.0/">
        <!ENTITY ns_custom "http://ns.adobe.com/GenericCustomNamespace/1.0/">
        <!ENTITY ns_adobe_xpath "http://ns.adobe.com/XPath/1.0/">
        ]>
<svg version="1.1" id="Layer_1"  xmlns:i="&ns_ai;"
	 xmlns="http://www.w3.org/2000/svg"  x="0px" y="0px" width="262.93px"
	 height="150.761px" viewBox="0 0 262.93 150.761" enable-background="new 0 0 262.93 150.761" xml:space="preserve">
<switch>
	<g i:extraneous="self">
		<g>
			<polygon fill="#606466" points="156.802,140.801 156.802,60.66 122.729,96.763 136.821,130.842 			"/>
			<polygon fill="#606466" points="246.419,140.801 246.419,38.375 189.937,42.572 226.438,130.842 			"/>
			<path fill="#808286" d="M100.011,150.761c5.5,0,9.959-4.459,9.959-9.96c0-5.5-4.459-9.959-9.959-9.959H86.709
				c-5.5,0-9.96,4.459-9.96,9.959c0,5.501,4.46,9.96,9.96,9.96H100.011z"/>
			<path fill="#606466" d="M146.843,150.761c5.5,0,9.959-4.459,9.959-9.96c0-5.5-4.459-9.959-9.959-9.959H133.54
				c-5.5,0-9.959,4.459-9.959,9.959c0,5.501,4.459,9.96,9.959,9.96H146.843z"/>
			<path fill="#808286" d="M196.28,150.761c5.5,0,9.959-4.459,9.959-9.96c0-5.5-4.459-9.959-9.959-9.959h-13.302
				c-5.5,0-9.96,4.459-9.96,9.959c0,5.501,4.46,9.96,9.96,9.96H196.28z"/>
			<path fill="#606466" d="M236.46,150.761c5.5,0,9.959-4.459,9.959-9.96c0-5.5-4.459-9.959-9.959-9.959h-13.302
				c-5.5,0-9.96,4.459-9.96,9.959c0,5.501,4.46,9.96,9.96,9.96H236.46z"/>
			<g>
				<path fill="#808286" d="M0,130.592c12.002,0,22.197-7.736,25.873-18.494l-0.01,0.005l12.899-29.249
					c-9.014-1.217-17.03-5.564-22.929-11.911l0,0v32.308v0.007c0,8.745-7.089,15.835-15.834,15.835V130.592z"/>
			</g>
			<path fill="#808286" d="M92.584,38.375c0,15.865-10.992,26.877-23.392,35.349l0.021-0.013c-6.75,5.909-15.59,9.49-25.267,9.49
				L15.834,62.725v-24.35C15.834,17.181,33.015,0,54.209,0h38.375V38.375z"/>
			<g>
				<path fill="#808286" d="M108.843,145.394l43.031-68.645v0.001h36.716v54.092l17.287,12.96l36.502-88.27l-0.003,0.009
					c1.293-2.583,2.25-5.136,2.938-8.011c4.212,2.846,6.981,7.664,6.981,13.13v39.007c0,6.923,4.443,12.81,10.634,14.961
					l0.001-0.003v-68.25c0-25.592-20.745-46.337-46.337-46.337V0h-96.23l13.434,24.22L89.146,130.842L108.843,145.394z"/>
			</g>
			<g>
				<path fill="#BAC8CF" d="M43.947,83.201c-18.41,0-33.792-12.964-37.516-30.261l0.122,0.184
					c6.896,10.209,18.575,16.92,31.821,16.92c1.893,0,3.753-0.137,5.572-0.401V83.201z"/>
			</g>
			<circle fill="#BAC8CF" cx="43.947" cy="44.826" r="5.451"/>
			<g>
				<path fill="#A3ACAF" d="M114.422,70.485l19.374-46.266l0.034-0.054c1.383-2.828,2.366-5.274,2.366-8.332
					C136.196,7.089,129.107,0,120.362,0H84.177v0.038v63.046c0,8.745,7.09,15.835,15.834,15.835
					C106.019,78.919,111.739,75.414,114.422,70.485L114.422,70.485z"/>
			</g>
		</g>
	</g>
</switch>
</svg>
