<?xml version="1.0" encoding="UTF-8" standalone="no"?>
<!DOCTYPE svg  PUBLIC '-//W3C//DTD SVG 1.1//EN'  'http://www.w3.org/Graphics/SVG/1.1/DTD/svg11.dtd' [
        <!ENTITY ns_extend "http://ns.adobe.com/Extensibility/1.0/">
        <!ENTITY ns_ai "http://ns.adobe.com/AdobeIllustrator/10.0/">
        <!ENTITY ns_graphs "http://ns.adobe.com/Graphs/1.0/">
        <!ENTITY ns_vars "http://ns.adobe.com/Variables/1.0/">
        <!ENTITY ns_imrep "http://ns.adobe.com/ImageReplacement/1.0/">
        <!ENTITY ns_sfw "http://ns.adobe.com/SaveForWeb/1.0/">
        <!ENTITY ns_custom "http://ns.adobe.com/GenericCustomNamespace/1.0/">
        <!ENTITY ns_adobe_xpath "http://ns.adobe.com/XPath/1.0/">
        ]>
<svg xmlns="http://www.w3.org/2000/svg" enable-background="new 0 0 700 300" xml:space="preserve" height="300px" viewBox="0 0 700 300" width="700px" version="1.1" y="0px" x="0px" >
<switch>
	<g>
		<g fill="#FCFCFC">
				<path d="m209 101h2.7v88c0 2.61 0.809 4.67 2.42 6.2 1.62 1.53 3.77 2.29 6.47 2.29 0.988 0 2.18-0.111 3.57-0.337 1.39-0.223 2.67-0.517 3.84-0.875l0.944 2.16c-1.26 0.451-2.81 0.832-4.65 1.14-1.84 0.313-3.39 0.472-4.65 0.472-3.14 0-5.71-1.01-7.68-3.03-1.98-2.02-2.96-4.69-2.96-8.02v-87z"/>
				<path d="m240 111v-10.4h2.69v10.4h-3zm0 88v-69.9h2.69v69.9h-3z"/>
				<path d="m293 196c-1.35 0.899-2.58 1.57-3.71 2.02-1.12 0.451-2.45 0.875-3.98 1.28-1.53 0.404-3.23 0.606-5.12 0.606-3.23 0-6.06-0.987-8.49-2.96-2.42-1.98-3.64-4.58-3.64-7.81v-57.1h-10.1v-2.7h10.1v-24.4h2.7v24.4h16.8v2.7h-16.8v57.1c0.179 2.61 1.21 4.6 3.1 6 1.89 1.39 4 2.09 6.33 2.09 1.53 0 2.96-0.155 4.31-0.471 1.35-0.313 2.54-0.674 3.57-1.08 1.03-0.404 1.84-0.785 2.42-1.14 0.584-0.358 0.92-0.583 1.01-0.673l2 2z"/>
				<path d="m332 200c-4.58 0-8.92-0.967-13-2.9-4.09-1.93-7.66-4.58-10.7-7.95-3.06-3.37-5.48-7.28-7.28-11.7-1.8-4.45-2.7-9.18-2.7-14.2 0-4.94 0.853-9.57 2.56-13.9 1.7-4.31 4.06-8.08 7.07-11.3 3.01-3.23 6.51-5.77 10.5-7.61 4-1.84 8.29-2.76 12.9-2.76 4.67 0 9.05 0.943 13.1 2.83 4.09 1.89 7.63 4.45 10.6 7.68 3.01 3.23 5.41 7.05 7.21 11.5 1.8 4.4 2.7 9.12 2.7 14.1v1.48h-64c0.358 4.49 1.42 8.69 3.17 12.6s4.02 7.3 6.8 10.2c2.78 2.88 6 5.14 9.63 6.8 3.64 1.66 7.48 2.49 11.5 2.49 2.7 0 5.32-0.357 7.88-1.08 2.56-0.718 4.96-1.73 7.21-3.03 2.24-1.3 4.22-2.85 5.93-4.65 1.7-1.8 3.05-3.77 4.04-5.93l2.56 0.673c-0.988 2.42-2.4 4.65-4.24 6.67s-4 3.77-6.47 5.26c-2.47 1.48-5.17 2.65-8.08 3.5-4 2-7 2-10 2zm30-37c-0.27-4.67-1.26-8.98-2.96-12.9-1.71-3.95-3.93-7.34-6.67-10.2-2.74-2.83-5.91-5.05-9.5-6.67s-7.46-2.42-11.6-2.42c-4.13 0-8 0.809-11.6 2.42-3.59 1.62-6.76 3.86-9.5 6.74s-4.92 6.29-6.53 10.2c-1.62 3.95-2.56 8.22-2.83 12.8h64z"/>
				<path d="m456 174c0 3.59-0.72 6.9-2.16 9.9-1.44 3.01-3.37 5.61-5.8 7.81-2.42 2.2-5.26 3.91-8.49 5.12s-6.69 1.82-10.4 1.82h-46v-95.7h46.1c3.32 0 6.33 0.72 9.03 2.16 2.69 1.44 4.98 3.3 6.87 5.59s3.35 4.9 4.38 7.81c1.03 2.92 1.55 5.86 1.55 8.83 0 4.85-1.21 9.28-3.64 13.3-2.42 4-5.79 6.99-10.1 8.96 5.48 1.62 9.81 4.63 13 9.03 4 4 5 10 5 15zm-62-62v35.3h32.9c2.34 0 4.52-0.494 6.54-1.48 2.02-0.988 3.75-2.29 5.19-3.91s2.56-3.48 3.37-5.59c0.809-2.11 1.21-4.33 1.21-6.67 0-2.42-0.384-4.72-1.15-6.87-0.765-2.16-1.84-4.02-3.23-5.59-1.4-1.57-3.03-2.83-4.92-3.77-1.89-0.943-3.95-1.42-6.2-1.42h-34zm53 61c0-2.34-0.403-4.6-1.21-6.8-0.809-2.2-1.95-4.13-3.44-5.79-1.48-1.66-3.23-3.01-5.26-4.04-2.02-1.03-4.2-1.55-6.53-1.55h-36.6v36.2h35.7c2.43 0 4.69-0.492 6.8-1.48 2.11-0.987 3.95-2.31 5.52-3.98 1.57-1.66 2.81-3.59 3.7-5.79-1-2 0-4 0-6z"/>
				<path d="m473 221c0.719 0.089 1.41 0.155 2.09 0.202 0.674 0.045 1.32 0.067 1.96 0.067 1.62 0 2.9-0.226 3.84-0.673 0.942-0.451 1.86-1.44 2.76-2.96 0.896-1.53 1.91-3.73 3.03-6.6 1.12-2.88 2.72-6.74 4.78-11.6l-30.6-70.2h9.43l26 61.7 24.1-61.7h8.76l-36 91c-0.989 2.6-2.63 4.87-4.92 6.8s-5.41 2.9-9.36 2.9c-0.899 0-1.75-0.024-2.56-0.068-0.809-0.046-1.8-0.158-2.96-0.337v-8z"/>
				<path d="m575 196c-0.539 0.27-1.33 0.628-2.36 1.08-1.03 0.451-2.22 0.899-3.57 1.35s-2.88 0.854-4.58 1.21c-1.71 0.358-3.5 0.539-5.39 0.539-1.98 0-3.86-0.27-5.66-0.809s-3.37-1.37-4.72-2.49c-1.35-1.12-2.42-2.54-3.23-4.24-0.809-1.7-1.21-3.68-1.21-5.93v-50.3h-9.7v-7.28h9.7v-23.7h9.16v23.7h16.2v7.28h-16.2v47.7c0.18 2.61 1.1 4.51 2.76 5.73 1.66 1.21 3.57 1.82 5.73 1.82 2.6 0 4.9-0.425 6.87-1.28 1.98-0.853 3.23-1.46 3.77-1.82l2 6z"/>
				<path d="m616 200c-5.12 0-9.82-0.967-14.1-2.9-4.27-1.93-7.97-4.58-11.1-7.95-3.15-3.37-5.59-7.25-7.34-11.7-1.75-4.4-2.63-9.12-2.63-14.1 0-4.94 0.876-9.59 2.63-13.9 1.75-4.36 4.18-8.17 7.28-11.5 3.1-3.28 6.8-5.88 11.1-7.81 4.31-1.93 8.98-2.9 14-2.9 5.12 0 9.81 0.967 14.1 2.9 4.27 1.93 7.93 4.56 11 7.88 3.05 3.32 5.43 7.14 7.14 11.5 1.7 4.31 2.56 8.89 2.56 13.7v2.16c0 0.72-0.047 1.21-0.135 1.48h-60.1c0.27 3.77 1.15 7.26 2.63 10.4 1.48 3.19 3.39 5.95 5.73 8.29s5.01 4.16 8.02 5.46 6.22 1.95 9.63 1.95c2.24 0 4.49-0.313 6.74-0.943 2.24-0.628 4.31-1.48 6.2-2.56s3.59-2.4 5.12-3.98c1.53-1.57 2.7-3.3 3.51-5.19l7.95 2.16c-1.08 2.61-2.6 4.96-4.58 7.08-1.97 2.11-4.27 3.95-6.87 5.52s-5.48 2.79-8.62 3.64c-5 2-8 2-11 2zm25-40c-0.27-3.77-1.15-7.21-2.63-10.3-1.48-3.1-3.37-5.77-5.66-8.02-2.29-2.24-4.94-4-7.95-5.26s-6.22-1.89-9.63-1.89c-3.42 0-6.65 0.629-9.7 1.89-3.06 1.26-5.73 3.01-8.02 5.26s-4.13 4.94-5.52 8.08c-1.4 3.14-2.22 6.56-2.49 10.2h53z"/>
				<path d="m133 159c2.48 0 4.5 2.02 4.5 4.5v11.8c0 2.48-2.02 4.5-4.5 4.5h-37.1c-2.47 0-4.5 2.02-4.5 4.5v10.6c0 2.48 2.02 4.5 4.5 4.5h56.1c2.48 0 4.5-2.02 4.5-4.5v-51.3c0-2.48-2.03-4.5-4.5-4.5h-33.7c-2.48 0-4.5-2.02-4.5-4.5v-67.1c0-2.48-2.02-4.5-4.5-4.5h-15.1c-2.47 0-4.5 2.02-4.5 4.5v85.3c0 2.48 2.02 4.5 4.5 4.5h36.1z"/>
				<path d="m83.9 101c0-2.4-2.02-4.36-4.5-4.36h-9.85c-2.48 0-4.5 1.96-4.5 4.36s2.02 4.37 4.5 4.37h9.85c2.5 0 4.5-2 4.5-4"/>
				<path d="m83.9 86.8c0-2.4-2.02-4.37-4.5-4.37h-24.8c-2.48 0-4.5 1.96-4.5 4.37s2.02 4.36 4.5 4.36h24.7c2.6-0.1 4.6-2 4.6-4.4"/>
				<path d="m83.9 126c0-2.4-2.02-4.37-4.5-4.37h-9.85c-2.48 0-4.5 1.96-4.5 4.37 0 2.4 2.02 4.37 4.5 4.37h9.85c2.5 1 4.5-1 4.5-4"/>
				<path d="m83.9 113c0-2.4-2.02-4.37-4.5-4.37h-24.8c-2.48 0-4.5 1.96-4.5 4.37 0 2.4 2.02 4.37 4.5 4.37h24.7c2.6 1 4.6-1 4.6-4"/>
		</g>
	</g>
</switch>
</svg>
