<?xml version="1.0" encoding="utf-8"?>
<!DOCTYPE svg PUBLIC "-//W3C//DTD SVG 1.1//EN" "http://www.w3.org/Graphics/SVG/1.1/DTD/svg11.dtd" [
        <!ENTITY ns_extend "http://ns.adobe.com/Extensibility/1.0/">
        <!ENTITY ns_ai "http://ns.adobe.com/AdobeIllustrator/10.0/">
        <!ENTITY ns_graphs "http://ns.adobe.com/Graphs/1.0/">
        <!ENTITY ns_vars "http://ns.adobe.com/Variables/1.0/">
        <!ENTITY ns_imrep "http://ns.adobe.com/ImageReplacement/1.0/">
        <!ENTITY ns_sfw "http://ns.adobe.com/SaveForWeb/1.0/">
        <!ENTITY ns_custom "http://ns.adobe.com/GenericCustomNamespace/1.0/">
        <!ENTITY ns_adobe_xpath "http://ns.adobe.com/XPath/1.0/">
        ]>
<svg version="1.1" id="Layer_1"
	 xmlns="http://www.w3.org/2000/svg"  x="0px" y="0px" width="300px" height="300px"
	 viewBox="0 0 300 300" enable-background="new 0 0 300 300" xml:space="preserve">
		<g fill="#FCFCFC">
			<path d="M191.83,188.586c3.679,0,6.685,3.005,6.685,6.68v17.568c0,3.673-3.006,6.679-6.685,6.679h-54.09
				c-3.672,0-6.678,3.005-6.678,6.678v15.804c0,3.673,3.005,6.679,6.678,6.679h83.251c3.673,0,6.686-3.005,6.686-6.679v-76.186
				c0-3.673-3.013-6.68-6.686-6.68h-49.968c-3.673,0-6.678-3.006-6.678-6.679V55.355c0-3.675-3.005-6.681-6.678-6.681H137.74
				c-3.672,0-6.678,3.006-6.678,6.681v126.551c0,3.675,3.005,6.68,6.678,6.68H191.83z"/>
			<path d="M118.393,102.578c0-3.564-3.005-6.479-6.678-6.479H97.094c-3.673,0-6.679,2.916-6.679,6.479
				c0,3.564,3.005,6.48,6.679,6.48h14.621C115.387,109.058,118.393,106.142,118.393,102.578"/>
			<path d="M118.393,81.959c0-3.564-3.005-6.481-6.678-6.481H75.001c-3.673,0-6.679,2.917-6.679,6.481
				s3.005,6.479,6.679,6.479h36.713C115.387,88.439,118.393,85.524,118.393,81.959"/>
			<path d="M118.393,140.87c0-3.565-3.005-6.481-6.678-6.481H97.094c-3.673,0-6.679,2.916-6.679,6.481
				c0,3.564,3.005,6.48,6.679,6.48h14.621C115.387,147.35,118.393,144.434,118.393,140.87"/>
			<path d="M118.393,121.429c0-3.564-3.005-6.48-6.678-6.48H75.001c-3.673,0-6.679,2.916-6.679,6.48
				c0,3.565,3.005,6.481,6.679,6.481h36.713C115.387,127.91,118.393,124.994,118.393,121.429"/>
		</g>
</svg>
