<?xml version="1.0" encoding="utf-8"?>
<svg version="1.1" xmlns="http://www.w3.org/2000/svg" x="0" y="0" width="200px" height="200px" viewBox="0 0 200 200"
     enable-background="new 0 0 200 200">
    <circle fill="#00ee9e" cx="100" cy="100" r="100"/>
    <g>
        <circle opacity="0.3" fill="#0B1B26" cx="69.475" cy="73.901" r="28.619"/>
        <path opacity="0.3" fill="#0B1B26"
              d="M164.542,45.267c5.859,0,11.305-1.764,15.841-4.785 C169.501,25.801,154.693,14.208,137.51,7.25c-1.022,2.944-1.587,6.104-1.587,9.397C135.923,32.454,148.737,45.267,164.542,45.267 z"/>
        <path opacity="0.3" fill="#0B1B26"
              d="M142.312,145.674c0,14.146,6.806,26.701,17.322,34.571 c23.239-17.292,38.714-44.436,40.238-75.25c-4.507-1.597-9.354-2.474-14.409-2.474 C161.634,102.521,142.312,121.84,142.312,145.674z"/>
        <path opacity="0.3" fill="#0B1B26"
              d="M127.882,73.658c-7.972,0-14.432,6.461-14.432,14.431c0,7.97,6.46,14.431,14.432,14.431 c7.967,0,14.431-6.461,14.431-14.431C142.312,80.12,135.849,73.658,127.882,73.658z"/>
        <path opacity="0.3" fill="#0B1B26"
              d="M73.8,131.116c-7.973,0-14.432,6.46-14.432,14.43s6.459,14.431,14.432,14.431 c7.967,0,14.43-6.461,14.43-14.431S81.767,131.116,73.8,131.116z"/>
        <path opacity="0.3" fill="#0B1B26"
              d="M19.665,116.951c0-7.97-6.459-14.43-14.431-14.43c-1.824,0-3.562,0.352-5.167,0.969 c0.336,9.709,2.056,19.067,4.968,27.882c0.067,0.001,0.132,0.01,0.199,0.01C13.206,131.382,19.665,124.92,19.665,116.951z"/>
    </g>
</svg>
