<?xml version="1.0" encoding="utf-8"?>
<!DOCTYPE svg PUBLIC "-//W3C//DTD SVG 1.1//EN" "http://www.w3.org/Graphics/SVG/1.1/DTD/svg11.dtd" [
        <!ENTITY ns_extend "http://ns.adobe.com/Extensibility/1.0/">
        <!ENTITY ns_ai "http://ns.adobe.com/AdobeIllustrator/10.0/">
        <!ENTITY ns_graphs "http://ns.adobe.com/Graphs/1.0/">
        <!ENTITY ns_vars "http://ns.adobe.com/Variables/1.0/">
        <!ENTITY ns_imrep "http://ns.adobe.com/ImageReplacement/1.0/">
        <!ENTITY ns_sfw "http://ns.adobe.com/SaveForWeb/1.0/">
        <!ENTITY ns_custom "http://ns.adobe.com/GenericCustomNamespace/1.0/">
        <!ENTITY ns_adobe_xpath "http://ns.adobe.com/XPath/1.0/">
        ]>
<svg version="1.1" id="Layer_1"  xmlns:i="&ns_ai;"
	 xmlns="http://www.w3.org/2000/svg"  x="0px" y="0px" width="200px" height="200px"
	 viewBox="0 0 200 200" enable-background="new 0 0 200 200" xml:space="preserve">
<switch>
	<g i:extraneous="self">
		<circle fill="#006AD2" cx="100" cy="100" r="100"/>
		<g>
			<path opacity="0.3" fill="#0B1B26" d="M199.999,99.792c0-15.269-3.427-29.61-9.546-42.61H9.546C3.428,70.181,0,84.523,0,99.792
				c0,4.911,0.36,10.39,1.045,14.39h197.909C199.639,110.181,199.999,104.703,199.999,99.792z"/>
			<path opacity="0.3" fill="#0B1B26" d="M190.29,143.181H9.709c5.116,11,12.084,20,20.489,28h139.604
				C178.206,163.181,185.174,154.181,190.29,143.181z"/>
			<path opacity="0.3" fill="#0B1B26" d="M105.953,0.181H94.046c-24.969,1-47.475,12-64.205,29h140.317
				C153.428,12.181,130.923,1.181,105.953,0.181z"/>
		</g>
	</g>
</switch>
</svg>
