<?xml version="1.0" encoding="utf-8"?>
<!DOCTYPE svg PUBLIC "-//W3C//DTD SVG 1.1//EN" "http://www.w3.org/Graphics/SVG/1.1/DTD/svg11.dtd" [
        <!ENTITY ns_extend "http://ns.adobe.com/Extensibility/1.0/">
        <!ENTITY ns_ai "http://ns.adobe.com/AdobeIllustrator/10.0/">
        <!ENTITY ns_graphs "http://ns.adobe.com/Graphs/1.0/">
        <!ENTITY ns_vars "http://ns.adobe.com/Variables/1.0/">
        <!ENTITY ns_imrep "http://ns.adobe.com/ImageReplacement/1.0/">
        <!ENTITY ns_sfw "http://ns.adobe.com/SaveForWeb/1.0/">
        <!ENTITY ns_custom "http://ns.adobe.com/GenericCustomNamespace/1.0/">
        <!ENTITY ns_adobe_xpath "http://ns.adobe.com/XPath/1.0/">
        ]>
<svg version="1.1" id="Layer_1"
	 xmlns="http://www.w3.org/2000/svg" xmlns:xlink="http://www.w3.org/1999/xlink" x="0px" y="0px" width="456.14px"
	 height="296.491px" viewBox="0 0 456.14 296.491" enable-background="new 0 0 456.14 296.491" xml:space="preserve">
		<g>
			<defs>
				<circle id="SVGID_1_" cx="153.386" cy="148.949" r="134"/>
			</defs>
			<clipPath id="SVGID_2_">
				<use xlink:href="#SVGID_1_"  overflow="visible"/>
			</clipPath>
			<g clip-path="url(#SVGID_2_)">
				<circle fill="#006AD2" cx="153.386" cy="148.949" r="134"/>
				<g>
					<path fill="#00EE9E" d="M273.823,125.365h-58.994c-14.685,0-26.587,11.904-26.587,26.588c0,14.682,11.902,26.586,26.587,26.586
						h23.312c5.023,0,9.097,4.072,9.097,9.096v34.278c0,14.685,11.903,26.588,26.586,26.588c14.684,0,26.588-11.903,26.588-26.588
						v-69.96C300.411,137.269,288.507,125.365,273.823,125.365z"/>
					<path fill="#00EE9E" d="M460.017,201.966H431.62c-10.176,0-18.424,8.249-18.424,18.425s8.248,18.424,18.424,18.424h28.396
						c10.175,0,18.425-8.248,18.425-18.424S470.191,201.966,460.017,201.966z"/>
					<path fill="#FFFFFF" d="M230.075,264.525H76.696c-10.176,0-18.426,8.248-18.426,18.424s8.25,18.425,18.426,18.425h153.379
						c10.175,0,18.425-8.249,18.425-18.425S240.25,264.525,230.075,264.525z"/>
					<path fill="#00EE9E" d="M242.574,76.265c5.874,0,10.634-4.762,10.634-10.636V52.706c0-5.873-4.76-10.633-10.634-10.633
						c-5.873,0-10.635,4.76-10.635,10.633v12.923C231.939,71.503,236.701,76.265,242.574,76.265z"/>
					<path fill="#00EE9E" d="M326.426,187.679c-5.873,0-10.635,4.761-10.635,10.633v12.923c0,5.875,4.762,10.637,10.635,10.637
						c5.874,0,10.635-4.762,10.635-10.637v-12.923C337.061,192.439,332.3,187.679,326.426,187.679z"/>
					<path fill="#00EE9E" d="M476.357,123.607c-5.872,0-10.636,4.76-10.636,10.634v12.922c0,5.874,4.764,10.636,10.636,10.636
						c5.873,0,10.634-4.762,10.634-10.636v-12.922C486.991,128.367,482.23,123.607,476.357,123.607z"/>
					<path fill="#00EE9E" d="M316.543,137.366l-0.001-0.001c-0.003-0.01-0.009-0.019-0.014-0.029L316.543,137.366z"/>
					<path fill="#00EE9E" d="M488.239,53.649H276.731c-5.873,0-10.635,4.762-10.635,10.634V74.92
						c0,5.873-4.762,10.634-10.635,10.634h-18.384c-5.874,0-10.637,4.762-10.637,10.635s4.763,10.634,10.637,10.634h36.745
						c19.819,0,36.653,12.775,42.719,30.542c1.564,3.927,5.396,6.706,9.884,6.706h47.354c7.827-0.001,14.516,4.88,17.185,11.765
						l0.085,0.071c3.281,10.963,13.445,18.954,25.476,18.953c14.684,0,26.588-11.904,26.588-26.587l0.093,0.746
						c1.511-23.557,21.095-42.195,45.034-42.195c14.683,0,26.587-11.902,26.587-26.586
						C514.826,65.552,502.922,53.649,488.239,53.649z"/>
					<path fill="#00EE9E" d="M143.097,40.744c0,10.175,8.25,18.425,18.426,18.425c10.175,0,18.424-8.25,18.424-18.425v-52.252
						h-36.85V40.744z"/>
					<polygon fill="#00EE9E" points="88.085,122.675 88.076,122.679 88.075,122.681 					"/>
					<path fill="#00EE9E" d="M124.862,142.854H92.778c-5.874,0-10.636-4.759-10.636-10.635c0-4.185,2.42-7.805,5.934-9.54
						l16.964-11.392l-0.003,0.003c8.317-4.494,13.968-13.291,13.968-23.406c0-14.686-11.904-26.588-26.588-26.588H9.418H9.409
						c-10.17,0-18.415,8.244-18.415,18.416c0,10.169,8.245,18.415,18.415,18.415h5.335v-0.049c14.683,0,26.588,11.902,26.588,26.586
						c0,1.273-0.09,2.525-0.264,3.751l0.009-0.02c-0.179,1.249-0.273,2.527-0.273,3.824c0,14.684,11.904,26.588,26.588,26.588
						h20.306c5.874,0,10.634,4.762,10.634,10.635h-0.055v76.131h0.055c0,5.023,4.073,9.097,9.097,9.097
						c4.092,0,7.552-2.703,8.694-6.419l-0.001,0.004l32.824-67.537l-0.021,0.05c1.62-3.435,2.525-7.274,2.525-11.325
						C151.45,154.759,139.547,142.854,124.862,142.854z"/>
				</g>
			</g>
		</g>
		<line fill="none" stroke="#FFFFFF" stroke-width="2" stroke-miterlimit="10" x1="142.995" y1="223.03" x2="363.766" y2="223.03"/>
		<circle fill="none" stroke="#FFFFFF" stroke-width="2" stroke-miterlimit="10" cx="129.1" cy="223.03" r="13.896"/>
		<g>
			<text transform="matrix(1 0 0 1 381.0576 215.0303)"><tspan x="0" y="0" fill="#FFFFFF" font-family="'Raleway-Regular'" font-size="18">we are</tspan><tspan x="0" y="24" fill="#FFFFFF" font-family="'Raleway-Regular'" font-size="18">here</tspan></text>
		</g>
</svg>
