<?xml version="1.0" encoding="utf-8"?>
<!DOCTYPE svg PUBLIC "-//W3C//DTD SVG 1.1//EN" "http://www.w3.org/Graphics/SVG/1.1/DTD/svg11.dtd" [
        <!ENTITY ns_extend "http://ns.adobe.com/Extensibility/1.0/">
        <!ENTITY ns_ai "http://ns.adobe.com/AdobeIllustrator/10.0/">
        <!ENTITY ns_graphs "http://ns.adobe.com/Graphs/1.0/">
        <!ENTITY ns_vars "http://ns.adobe.com/Variables/1.0/">
        <!ENTITY ns_imrep "http://ns.adobe.com/ImageReplacement/1.0/">
        <!ENTITY ns_sfw "http://ns.adobe.com/SaveForWeb/1.0/">
        <!ENTITY ns_custom "http://ns.adobe.com/GenericCustomNamespace/1.0/">
        <!ENTITY ns_adobe_xpath "http://ns.adobe.com/XPath/1.0/">
        ]>
<svg version="1.1" id="Layer_1"
	 xmlns="http://www.w3.org/2000/svg" xmlns:xlink="http://www.w3.org/1999/xlink" x="0px" y="0px" width="209.101px" height="180px"
	 viewBox="0 0 209.101 180" enable-background="new 0 0 209.101 180" xml:space="preserve">
	<g>
		<defs>
			<circle id="SVGID_1_" cx="97.928" cy="90" r="90"/>
		</defs>
		<clipPath id="SVGID_2_">
			<use xlink:href="#SVGID_1_"  overflow="visible"/>
		</clipPath>
		<g clip-path="url(#SVGID_2_)">
			<circle fill="#006AD2" cx="97.928" cy="90" r="90"/>
			<g>
				<path fill="#00EE9E" d="M178.819,74.16h-39.623c-9.862,0-17.856,7.995-17.856,17.857c0,9.861,7.994,17.856,17.856,17.856
					h15.657c3.374,0,6.109,2.735,6.109,6.109v23.022c0,9.862,7.995,17.857,17.856,17.857c9.862,0,17.857-7.995,17.857-17.857
					V92.018C196.676,82.155,188.681,74.16,178.819,74.16z"/>
				<path fill="#00EE9E" d="M303.874,125.608h-19.072c-6.834,0-12.374,5.54-12.374,12.375c0,6.834,5.54,12.374,12.374,12.374
					h19.072c6.834,0,12.375-5.54,12.375-12.374C316.249,131.148,310.708,125.608,303.874,125.608z"/>
				<path fill="#FFFFFF" d="M149.436,167.626H46.42c-6.834,0-12.375,5.539-12.375,12.374s5.541,12.374,12.375,12.374h103.016
					c6.834,0,12.375-5.539,12.375-12.374S156.27,167.626,149.436,167.626z"/>
				<path fill="#00EE9E" d="M157.831,41.182c3.945,0,7.143-3.198,7.143-7.143v-8.68c0-3.944-3.198-7.142-7.143-7.142
					c-3.944,0-7.143,3.198-7.143,7.142v8.68C150.688,37.984,153.886,41.182,157.831,41.182z"/>
				<path fill="#00EE9E" d="M214.149,116.013c-3.944,0-7.143,3.197-7.143,7.142v8.68c0,3.945,3.198,7.144,7.143,7.144
					c3.945,0,7.143-3.198,7.143-7.144v-8.68C221.292,119.21,218.094,116.013,214.149,116.013z"/>
				<path fill="#00EE9E" d="M314.849,72.979c-3.944,0-7.144,3.198-7.144,7.143v8.679c0,3.945,3.199,7.144,7.144,7.144
					s7.142-3.198,7.142-7.144v-8.679C321.991,76.177,318.793,72.979,314.849,72.979z"/>
				<path fill="#00EE9E" d="M207.511,82.221c0,0-0.001-0.001-0.001-0.001c-0.002-0.007-0.006-0.012-0.009-0.019L207.511,82.221z"/>
				<path fill="#00EE9E" d="M322.83,25.993H180.772c-3.944,0-7.143,3.198-7.143,7.143v7.144c0,3.944-3.198,7.142-7.143,7.142
					h-12.348c-3.945,0-7.144,3.198-7.144,7.143c0,3.945,3.198,7.143,7.144,7.143h24.68c13.312,0,24.618,8.58,28.691,20.512
					c1.051,2.638,3.625,4.504,6.639,4.504h31.805c5.257,0,9.749,3.278,11.542,7.902l0.057,0.048
					c2.204,7.363,9.03,12.73,17.11,12.729c9.862,0,17.857-7.995,17.857-17.856l0.062,0.5c1.015-15.821,14.168-28.339,30.247-28.339
					c9.861,0,17.856-7.995,17.856-17.857C340.686,33.987,332.691,25.993,322.83,25.993z"/>
				<path fill="#00EE9E" d="M91.018,17.325c0,6.834,5.541,12.375,12.375,12.375c6.834,0,12.374-5.541,12.374-12.375V-17.77H91.018
					V17.325z"/>
				<polygon fill="#00EE9E" points="54.07,72.353 54.064,72.356 54.062,72.357 					"/>
				<path fill="#00EE9E" d="M78.771,85.906H57.222c-3.945,0-7.144-3.197-7.144-7.143c0-2.811,1.625-5.242,3.985-6.407l11.394-7.651
					l-0.002,0.002c5.586-3.019,9.381-8.927,9.381-15.721c0-9.863-7.995-17.857-17.857-17.857H1.234H1.228
					c-6.831,0-12.368,5.537-12.368,12.369c0,6.831,5.537,12.368,12.368,12.368h3.583v-0.033c9.861,0,17.857,7.994,17.857,17.856
					c0,0.855-0.061,1.697-0.177,2.52l0.006-0.014c-0.121,0.838-0.184,1.697-0.184,2.568c0,9.862,7.995,17.857,17.857,17.857h13.638
					c3.945,0,7.143,3.198,7.143,7.143h-0.037v51.132h0.037c0,3.375,2.735,6.109,6.109,6.109c2.748,0,5.072-1.814,5.84-4.311
					l-0.001,0.003l22.046-45.36l-0.013,0.033c1.087-2.307,1.696-4.887,1.696-7.606C96.628,93.901,88.634,85.906,78.771,85.906z"/>
			</g>
		</g>
	</g>
</svg>
